<svg xmlns="http://www.w3.org/2000/svg" xmlns:xlink="http://www.w3.org/1999/xlink" xmlns:lucid="lucid" width="960" height="960"><g transform="translate(-460 -60)" lucid:page-tab-id="0_0"><path d="M0 0h1870.87v1322.84H0z" fill="#fff"/><path d="M480 206a6 6 0 0 1 6-6h908a6 6 0 0 1 6 6v788a6 6 0 0 1-6 6H486a6 6 0 0 1-6-6z" stroke="#3a414a" fill-opacity="0"/><path d="M760 386a6 6 0 0 1 6-6h368a6 6 0 0 1 6 6v68a6 6 0 0 1-6 6H766a6 6 0 0 1-6-6zM760 306a6 6 0 0 1 6-6h368a6 6 0 0 1 6 6v68a6 6 0 0 1-6 6H766a6 6 0 0 1-6-6z" stroke="#3a414a" fill="#fff"/><use xlink:href="#a" transform="matrix(1,0,0,1,772,312) translate(138.64814814814815 31.77777777777778)"/><a xlink:href="https://flowbite.com/" target="_blank"><path d="M760 226a6 6 0 0 1 6-6h368a6 6 0 0 1 6 6v68a6 6 0 0 1-6 6H766a6 6 0 0 1-6-6z" fill="#fff"/><path d="M775.8 220h9.83m4.9 0h9.82m4.9 0h9.82m4.9 0h9.82m4.9 0h9.8m4.9 0h9.83m4.9 0h9.82m4.9 0h9.82m4.9 0h9.82m4.9 0h9.8m4.9 0h9.83m4.9 0h9.82m4.9 0h9.82m4.9 0H977m4.9 0h9.8m4.9 0h9.83m4.9 0h9.82m4.9 0h9.82m4.9 0h9.82m4.9 0h9.8m4.9 0h9.83m4.9 0h9.82m4.9 0h9.82m4.9 0h9.82m4.9 0h4.9l.94.07.9.22.88.35.8.5.72.6.6.72.5.8.37.88.23.9.07.95v4.53m0 4.54v9.06m0 4.54v9.06m0 4.54v9.06m0 4.54v9.06m0 4.54V294l-.07.94-.22.9-.35.88-.5.8-.6.72-.72.6-.8.5-.88.37-.9.23-.95.07h-4.9m-4.9 0h-9.83m-4.9 0h-9.82m-4.9 0h-9.82m-4.9 0h-9.82m-4.9 0h-9.8m-4.9 0h-9.83m-4.9 0h-9.82m-4.9 0h-9.82m-4.9 0h-9.82m-4.9 0h-9.8m-4.9 0h-9.83m-4.9 0h-9.82m-4.9 0h-9.82m-4.9 0H923m-4.9 0h-9.8m-4.9 0h-9.83m-4.9 0h-9.82m-4.9 0h-9.82m-4.9 0h-9.82m-4.9 0h-9.8m-4.9 0h-9.83m-4.9 0h-9.82m-4.9 0h-9.82m-4.9 0h-9.82m-4.9 0H766l-.94-.07-.9-.22-.88-.35-.8-.5-.72-.6-.6-.72-.5-.8-.37-.88-.23-.9-.07-.95v-4.53m0-4.54v-9.06m0-4.54v-9.06m0-4.54v-9.06m0-4.54v-9.06m0-4.54V226l.07-.94.22-.9.35-.88.5-.8.6-.72.72-.6.8-.5.88-.37.9-.23.95-.07h4.9" stroke="#3a414a" fill="none"/><use xlink:href="#b" transform="matrix(1,0,0,1,772,232) translate(136.76543209876542 31.77777777777778)"/><path class="lucid-link lucid-hotspot lucid-overlay-hotspot" d="M760 226a6 6 0 0 1 6-6h368a6 6 0 0 1 6 6v68a6 6 0 0 1-6 6H766a6 6 0 0 1-6-6z" fill="none"/><path class="lucid-link lucid-hotspot lucid-overlay-hotspot" d="M775.8 220h9.83m4.9 0h9.82m4.9 0h9.82m4.9 0h9.82m4.9 0h9.8m4.9 0h9.83m4.9 0h9.82m4.9 0h9.82m4.9 0h9.82m4.9 0h9.8m4.9 0h9.83m4.9 0h9.82m4.9 0h9.82m4.9 0H977m4.9 0h9.8m4.9 0h9.83m4.9 0h9.82m4.9 0h9.82m4.9 0h9.82m4.9 0h9.8m4.9 0h9.83m4.9 0h9.82m4.9 0h9.82m4.9 0h9.82m4.9 0h4.9l.94.07.9.22.88.35.8.5.72.6.6.72.5.8.37.88.23.9.07.95v4.53m0 4.54v9.06m0 4.54v9.06m0 4.54v9.06m0 4.54v9.06m0 4.54V294l-.07.94-.22.9-.35.88-.5.8-.6.72-.72.6-.8.5-.88.37-.9.23-.95.07h-4.9m-4.9 0h-9.83m-4.9 0h-9.82m-4.9 0h-9.82m-4.9 0h-9.82m-4.9 0h-9.8m-4.9 0h-9.83m-4.9 0h-9.82m-4.9 0h-9.82m-4.9 0h-9.82m-4.9 0h-9.8m-4.9 0h-9.83m-4.9 0h-9.82m-4.9 0h-9.82m-4.9 0H923m-4.9 0h-9.8m-4.9 0h-9.83m-4.9 0h-9.82m-4.9 0h-9.82m-4.9 0h-9.82m-4.9 0h-9.8m-4.9 0h-9.83m-4.9 0h-9.82m-4.9 0h-9.82m-4.9 0h-9.82m-4.9 0H766l-.94-.07-.9-.22-.88-.35-.8-.5-.72-.6-.6-.72-.5-.8-.37-.88-.23-.9-.07-.95v-4.53m0-4.54v-9.06m0-4.54v-9.06m0-4.54v-9.06m0-4.54v-9.06m0-4.54V226l.07-.94.22-.9.35-.88.5-.8.6-.72.72-.6.8-.5.88-.37.9-.23.95-.07h4.9" fill="none"/></a><a xlink:href="https://flowbite.com/" target="_blank" transform="matrix(1,0,0,1,772,232)"><path class="lucid-link lucid-hotspot lucid-overlay-hotspot" fill-opacity="0" d="M136.77 14h82.47v26.67h-82.47z"/></a><path d="M780 400.67a6 6 0 0 1 6-6h148a6 6 0 0 1 6 6v38.66a6 6 0 0 1-6 6H786a6 6 0 0 1-6-6z" fill="#fff"/><path d="M795.87 394.67h9.86m4.94 0h9.86m4.94 0h9.86m4.94 0h9.86m4.94 0h9.86m4.94 0h9.86m4.94 0h9.86m4.94 0h9.86m4.94 0h9.86m4.94 0H934l.94.07.9.22.88.36.8.5.72.6.6.72.5.8.37.87.23.93.07.94v4.3m0 4.3v8.58m0 4.3v8.6m0 4.3v4.28l-.07.94-.22.92-.35.86-.5.8-.6.72-.72.6-.8.5-.88.36-.9.22-.95.07h-4.93m-4.94 0h-9.86m-4.94 0h-9.86m-4.94 0h-9.86m-4.94 0h-9.86m-4.94 0h-9.86m-4.94 0h-9.86m-4.94 0h-9.86m-4.94 0h-9.86m-4.94 0h-9.86m-4.94 0H786l-.94-.07-.9-.22-.88-.36-.8-.5-.72-.6-.6-.72-.5-.8-.37-.87-.23-.93-.07-.94v-4.3m0-4.3v-8.58m0-4.3v-8.6m0-4.3v-4.28l.07-.94.22-.92.35-.86.5-.8.6-.72.72-.6.8-.5.88-.36.9-.22.95-.07h4.93" stroke="#3a414a" fill="none"/><use xlink:href="#c" transform="matrix(1,0,0,1,792,406.6666666666667) translate(43.370370370370374 19.46527777777778)"/><path d="M760 466a6 6 0 0 1 6-6h368a6 6 0 0 1 6 6v68a6 6 0 0 1-6 6H766a6 6 0 0 1-6-6z" stroke="#3a414a" fill="#fff"/><use xlink:href="#d" transform="matrix(1,0,0,1,772,472) translate(142.2283950617284 31.77777777777778)"/><path d="M960 400.67a6 6 0 0 1 6-6h148a6 6 0 0 1 6 6v38.66a6 6 0 0 1-6 6H966a6 6 0 0 1-6-6z" fill="#fff"/><path d="M975.87 394.67h9.86m4.94 0h9.86m4.94 0h9.86m4.94 0h9.86m4.94 0h9.86m4.94 0h9.86m4.94 0h9.86m4.94 0h9.86m4.94 0h9.86m4.94 0h4.93l.94.07.9.22.88.36.8.5.72.6.6.72.5.8.37.87.23.93.07.94v4.3m0 4.3v8.58m0 4.3v8.6m0 4.3v4.28l-.07.94-.22.92-.35.86-.5.8-.6.72-.72.6-.8.5-.88.36-.9.22-.95.07h-4.93m-4.94 0h-9.86m-4.94 0h-9.86m-4.94 0h-9.86m-4.94 0h-9.86m-4.94 0h-9.86m-4.94 0h-9.86m-4.94 0h-9.86m-4.94 0h-9.86m-4.94 0h-9.86m-4.94 0H966l-.94-.07-.9-.22-.88-.36-.8-.5-.72-.6-.6-.72-.5-.8-.37-.87-.23-.93-.07-.94v-4.3m0-4.3v-8.58m0-4.3v-8.6m0-4.3v-4.28l.07-.94.22-.92.35-.86.5-.8.6-.72.72-.6.8-.5.88-.36.9-.22.95-.07h4.93" stroke="#3a414a" fill="none"/><use xlink:href="#e" transform="matrix(1,0,0,1,972,406.6666666666667) translate(39.04938271604939 19.46527777777778)"/><path d="M760 546a6 6 0 0 1 6-6h368a6 6 0 0 1 6 6v68a6 6 0 0 1-6 6H766a6 6 0 0 1-6-6z" stroke="#3a414a" fill="#fff"/><use xlink:href="#f" transform="matrix(1,0,0,1,772,552) translate(149.0185185185185 31.77777777777778)"/><path d="M760 786a6 6 0 0 1 6-6h368a6 6 0 0 1 6 6v68a6 6 0 0 1-6 6H766a6 6 0 0 1-6-6z" stroke="#3a414a" fill="#fff"/><path d="M780 800.67a6 6 0 0 1 6-6h148a6 6 0 0 1 6 6v38.66a6 6 0 0 1-6 6H786a6 6 0 0 1-6-6z" fill="#fff"/><path d="M795.87 794.67h9.86m4.94 0h9.86m4.94 0h9.86m4.94 0h9.86m4.94 0h9.86m4.94 0h9.86m4.94 0h9.86m4.94 0h9.86m4.94 0h9.86m4.94 0H934l.94.07.9.22.88.36.8.5.72.6.6.72.5.8.37.87.23.93.07.94v4.3m0 4.3v8.58m0 4.3v8.6m0 4.3v4.28l-.07.94-.22.92-.35.86-.5.8-.6.72-.72.6-.8.5-.88.36-.9.22-.95.07h-4.93m-4.94 0h-9.86m-4.94 0h-9.86m-4.94 0h-9.86m-4.94 0h-9.86m-4.94 0h-9.86m-4.94 0h-9.86m-4.94 0h-9.86m-4.94 0h-9.86m-4.94 0h-9.86m-4.94 0H786l-.94-.07-.9-.22-.88-.36-.8-.5-.72-.6-.6-.72-.5-.8-.37-.87-.23-.93-.07-.94v-4.3m0-4.3v-8.58m0-4.3v-8.6m0-4.3v-4.28l.07-.94.22-.92.35-.86.5-.8.6-.72.72-.6.8-.5.88-.36.9-.22.95-.07h4.93" stroke="#3a414a" fill="none"/><use xlink:href="#g" transform="matrix(1,0,0,1,792,806.6666666666667) translate(37.19753086419753 19.46527777777778)"/><path d="M960 800.67a6 6 0 0 1 6-6h148a6 6 0 0 1 6 6v38.66a6 6 0 0 1-6 6H966a6 6 0 0 1-6-6z" fill="#fff"/><path d="M975.87 794.67h9.86m4.94 0h9.86m4.94 0h9.86m4.94 0h9.86m4.94 0h9.86m4.94 0h9.86m4.94 0h9.86m4.94 0h9.86m4.94 0h9.86m4.94 0h4.93l.94.07.9.22.88.36.8.5.72.6.6.72.5.8.37.87.23.93.07.94v4.3m0 4.3v8.58m0 4.3v8.6m0 4.3v4.28l-.07.94-.22.92-.35.86-.5.8-.6.72-.72.6-.8.5-.88.36-.9.22-.95.07h-4.93m-4.94 0h-9.86m-4.94 0h-9.86m-4.94 0h-9.86m-4.94 0h-9.86m-4.94 0h-9.86m-4.94 0h-9.86m-4.94 0h-9.86m-4.94 0h-9.86m-4.94 0h-9.86m-4.94 0H966l-.94-.07-.9-.22-.88-.36-.8-.5-.72-.6-.6-.72-.5-.8-.37-.87-.23-.93-.07-.94v-4.3m0-4.3v-8.58m0-4.3v-8.6m0-4.3v-4.28l.07-.94.22-.92.35-.86.5-.8.6-.72.72-.6.8-.5.88-.36.9-.22.95-.07h4.93" stroke="#3a414a" fill="none"/><use xlink:href="#h" transform="matrix(1,0,0,1,972,806.6666666666667) translate(14.327160493827165 19.46527777777778)"/><a xlink:href="https://nextjs.org/docs/pages/building-your-application/configuring/custom-server" target="_blank"><path d="M1220 787.42a6 6 0 0 1 6-6h148a6 6 0 0 1 6 6v68a6 6 0 0 1-6 6h-148a6 6 0 0 1-6-6z" stroke="#3a414a" fill="#fff"/><path d="M1236 781.42v80m128-80v80" stroke="#3a414a" fill="none"/><use xlink:href="#i" transform="matrix(1,0,0,1,1245,786.4173228346456) translate(16.790123456790127 26.111111111111114)"/><use xlink:href="#j" transform="matrix(1,0,0,1,1245,786.4173228346456) translate(22.345679012345684 52.77777777777778)"/><path class="lucid-link lucid-hotspot lucid-overlay-hotspot" d="M1220 787.42a6 6 0 0 1 6-6h148a6 6 0 0 1 6 6v68a6 6 0 0 1-6 6h-148a6 6 0 0 1-6-6zM1236 781.42v80m128-80v80" fill="none"/></a><g transform="matrix(1,0,0,1,1245,786.4173228346456)"><a xlink:href="https://nextjs.org/docs/pages/building-your-application/configuring/custom-server" target="_blank"><path class="lucid-link lucid-hotspot lucid-overlay-hotspot" fill-opacity="0" d="M16.8 8.33h82.58V35h-82.6z"/></a><a xlink:href="https://nextjs.org/docs/pages/building-your-application/configuring/custom-server" target="_blank"><path class="lucid-link lucid-hotspot lucid-overlay-hotspot" fill-opacity="0" d="M22.35 35h65.3v26.67h-65.3z"/></a></g><path d="M1121 820h82.12" stroke="#3a414a" fill="none"/><path d="M1121 820.5h-.5v-1h.5z" stroke="#3a414a" stroke-width=".05" fill="#3a414a"/><path d="M1217.88 820l-14.26 4.63v-9.26z" stroke="#3a414a" fill="#3a414a"/><path d="M760 706a6 6 0 0 1 6-6h368a6 6 0 0 1 6 6v68a6 6 0 0 1-6 6H766a6 6 0 0 1-6-6z" stroke="#3a414a" fill="#fff"/><use xlink:href="#k" transform="matrix(1,0,0,1,772,712) translate(165.03703703703704 31.77777777777778)"/><a xlink:href="https://nextjs.org/docs/pages/building-your-application/configuring/custom-server" target="_blank"><path d="M1220 386a6 6 0 0 1 6-6h148a6 6 0 0 1 6 6v68a6 6 0 0 1-6 6h-148a6 6 0 0 1-6-6z" stroke="#3a414a" fill="#fff"/><path d="M1236 380v80m128-80v80" stroke="#3a414a" fill="none"/><use xlink:href="#l" transform="matrix(1,0,0,1,1245,385) translate(35.89506172839506 26.111111111111114)"/><use xlink:href="#m" transform="matrix(1,0,0,1,1245,385) translate(17.407407407407405 52.77777777777778)"/><path class="lucid-link lucid-hotspot lucid-overlay-hotspot" d="M1220 386a6 6 0 0 1 6-6h148a6 6 0 0 1 6 6v68a6 6 0 0 1-6 6h-148a6 6 0 0 1-6-6zM1236 380v80m128-80v80" fill="none"/></a><g transform="matrix(1,0,0,1,1245,385)"><a xlink:href="https://docs.strapi.io/dev-docs/quick-start" target="_blank"><path class="lucid-link lucid-hotspot lucid-overlay-hotspot" fill-opacity="0" d="M35.9 8.33h44.38V35H35.9z"/></a><a xlink:href="https://docs.strapi.io/dev-docs/quick-start" target="_blank"><path class="lucid-link lucid-hotspot lucid-overlay-hotspot" fill-opacity="0" d="M17.4 35h75.2v26.67H17.4z"/></a></g><path d="M1121 420h82.12" stroke="#3a414a" fill="none"/><path d="M1121 420.5h-.5v-1h.5z" stroke="#3a414a" stroke-width=".05" fill="#3a414a"/><path d="M1217.88 420l-14.26 4.63v-9.26z" stroke="#3a414a" fill="#3a414a"/><a xlink:href="https://nextjs.org/docs/pages/building-your-application/configuring/custom-server" target="_blank"><path d="M500 386a6 6 0 0 1 6-6h148a6 6 0 0 1 6 6v68a6 6 0 0 1-6 6H506a6 6 0 0 1-6-6z" stroke="#3a414a" fill="#fff"/><path d="M516 380v80m128-80v80" stroke="#3a414a" fill="none"/><use xlink:href="#n" transform="matrix(1,0,0,1,525,385) translate(11.851851851851848 26.111111111111114)"/><use xlink:href="#o" transform="matrix(1,0,0,1,525,385) translate(10.030864197530867 52.77777777777778)"/><path class="lucid-link lucid-hotspot lucid-overlay-hotspot" d="M500 386a6 6 0 0 1 6-6h148a6 6 0 0 1 6 6v68a6 6 0 0 1-6 6H506a6 6 0 0 1-6-6zM516 380v80m128-80v80" fill="none"/></a><g transform="matrix(1,0,0,1,525,385)"><a xlink:href="https://tailwindui.com/templates/commit" target="_blank"><path class="lucid-link lucid-hotspot lucid-overlay-hotspot" fill-opacity="0" d="M11.85 8.33h92.47V35H11.85z"/></a><a xlink:href="https://tailwindui.com/templates/commit" target="_blank"><path class="lucid-link lucid-hotspot lucid-overlay-hotspot" fill-opacity="0" d="M10.03 35h89.94v26.67H10.03z"/></a></g><path d="M779 420H676.88" stroke="#3a414a" fill="none"/><path d="M779.5 420.5h-.5v-1h.5z" stroke="#3a414a" stroke-width=".05" fill="#3a414a"/><path d="M662.12 420l14.26-4.63v9.26z" stroke="#3a414a" fill="#3a414a"/><path d="M960 906a6 6 0 0 1 6-6h148a6 6 0 0 1 6 6v68a6 6 0 0 1-6 6H966a6 6 0 0 1-6-6z" stroke="#3a414a" fill="#fff"/><path d="M976 900v80m128-80v80" stroke="#3a414a" fill="none"/><use xlink:href="#p" transform="matrix(1,0,0,1,985,905) translate(35.864197530864196 39.44444444444444)"/><path d="M1040 846.33v36.8" stroke="#3a414a" fill="none"/><path d="M1040.5 846.35h-1v-.52h1z" stroke="#3a414a" stroke-width=".05" fill="#3a414a"/><path d="M1040 897.88l-4.63-14.26h9.27z" stroke="#3a414a" fill="#3a414a"/><path d="M780 906a6 6 0 0 1 6-6h148a6 6 0 0 1 6 6v68a6 6 0 0 1-6 6H786a6 6 0 0 1-6-6z" stroke="#3a414a" fill="#fff"/><path d="M796 900v80m128-80v80" stroke="#3a414a" fill="none"/><use xlink:href="#q" transform="matrix(1,0,0,1,805,905) translate(27.839506172839506 39.44444444444444)"/><path d="M860 846.33v36.8" stroke="#3a414a" fill="none"/><path d="M860.5 846.35h-1v-.52h1z" stroke="#3a414a" stroke-width=".05" fill="#3a414a"/><path d="M860 897.88l-4.63-14.26h9.26z" stroke="#3a414a" fill="#3a414a"/><path d="M760 626a6 6 0 0 1 6-6h368a6 6 0 0 1 6 6v68a6 6 0 0 1-6 6H766a6 6 0 0 1-6-6z" fill="#fff"/><path d="M775.8 620h9.83m4.9 0h9.82m4.9 0h9.82m4.9 0h9.82m4.9 0h9.8m4.9 0h9.83m4.9 0h9.82m4.9 0h9.82m4.9 0h9.82m4.9 0h9.8m4.9 0h9.83m4.9 0h9.82m4.9 0h9.82m4.9 0H977m4.9 0h9.8m4.9 0h9.83m4.9 0h9.82m4.9 0h9.82m4.9 0h9.82m4.9 0h9.8m4.9 0h9.83m4.9 0h9.82m4.9 0h9.82m4.9 0h9.82m4.9 0h4.9l.94.07.9.22.88.35.8.5.72.6.6.72.5.8.37.88.23.9.07.95v4.53m0 4.54v9.06m0 4.54v9.06m0 4.54v9.06m0 4.54v9.06m0 4.54V694l-.07.94-.22.9-.35.88-.5.8-.6.72-.72.6-.8.5-.88.37-.9.23-.95.07h-4.9m-4.9 0h-9.83m-4.9 0h-9.82m-4.9 0h-9.82m-4.9 0h-9.82m-4.9 0h-9.8m-4.9 0h-9.83m-4.9 0h-9.82m-4.9 0h-9.82m-4.9 0h-9.82m-4.9 0h-9.8m-4.9 0h-9.83m-4.9 0h-9.82m-4.9 0h-9.82m-4.9 0H923m-4.9 0h-9.8m-4.9 0h-9.83m-4.9 0h-9.82m-4.9 0h-9.82m-4.9 0h-9.82m-4.9 0h-9.8m-4.9 0h-9.83m-4.9 0h-9.82m-4.9 0h-9.82m-4.9 0h-9.82m-4.9 0H766l-.94-.07-.9-.22-.88-.35-.8-.5-.72-.6-.6-.72-.5-.8-.37-.88-.23-.9-.07-.95v-4.53m0-4.54v-9.06m0-4.54v-9.06m0-4.54v-9.06m0-4.54v-9.06m0-4.54V626l.07-.94.22-.9.35-.88.5-.8.6-.72.72-.6.8-.5.88-.37.9-.23.95-.07h4.9" stroke="#3a414a" fill="none"/><use xlink:href="#r" transform="matrix(1,0,0,1,772,632) translate(145.3148148148148 31.77777777777778)"/><path d="M480 86a6 6 0 0 1 6-6h908a6 6 0 0 1 6 6v108a6 6 0 0 1-6 6H486a6 6 0 0 1-6-6z" stroke="#3a414a" fill="#fff"/><path d="M500 206a6 6 0 0 1 6-6h68a6 6 0 0 1 6 6v48a6 6 0 0 1-6 6h-68a6 6 0 0 1-6-6z" stroke="#000" stroke-opacity="0" fill="#fff" fill-opacity="0"/><use xlink:href="#s" transform="matrix(1,0,0,1,505,205) translate(0 30.27777777777778)"/><path d="M607 106a6 6 0 0 1 6-6h148a6 6 0 0 1 6 6v68a6 6 0 0 1-6 6H613a6 6 0 0 1-6-6z" stroke="#3a414a" fill="#fff"/><use xlink:href="#t" transform="matrix(1,0,0,1,612,105) translate(44.166666666666664 39.65277777777778)"/><path d="M858.83 106a6 6 0 0 1 6-6h256.44a6 6 0 0 1 6 6v28a6 6 0 0 1-6 6H864.83a6 6 0 0 1-6-6z" stroke="#3a414a" fill="#fff"/><use xlink:href="#u" transform="matrix(1,0,0,1,863.8336939349142,105) translate(114.68518518518519 19.65277777777778)"/><path d="M768 140h38.92a6 6 0 0 0 6-6v-8a6 6 0 0 1 6-6h38.9" stroke="#3a414a" fill="none"/><path d="M768 140.5h-.5v-1h.5zM858.33 120.5h-.5v-1h.5z" stroke="#3a414a" stroke-width=".05" fill="#3a414a"/><path d="M500 86a6 6 0 0 1 6-6h68a6 6 0 0 1 6 6v48a6 6 0 0 1-6 6h-68a6 6 0 0 1-6-6z" stroke="#000" stroke-opacity="0" fill="#fff" fill-opacity="0"/><use xlink:href="#v" transform="matrix(1,0,0,1,505,85) translate(0 30.27777777777778)"/><path d="M1220 106a6 6 0 0 1 6-6h148a6 6 0 0 1 6 6v68a6 6 0 0 1-6 6h-148a6 6 0 0 1-6-6z" stroke="#3a414a" fill="#fff"/><use xlink:href="#w" transform="matrix(1,0,0,1,1225,105) translate(34.691358024691354 39.65277777777778)"/><path d="M858.83 146a6 6 0 0 1 6-6h122.2a6 6 0 0 1 6 6v28a6 6 0 0 1-6 6h-122.2a6 6 0 0 1-6-6z" stroke="#3a414a" fill="#fff"/><path d="M872.25 140v40m107.36-40v40" stroke="#3a414a" fill="none"/><use xlink:href="#x" transform="matrix(1,0,0,1,880.6075539157525,145) translate(14.666666666666668 19.444444444444443)"/><path d="M993.02 146a6 6 0 0 1 6-6h123.15a6 6 0 0 1 6 6v28a6 6 0 0 1-6 6H999.02a6 6 0 0 1-6-6z" stroke="#3a414a" fill="#fff"/><path d="M1006.54 140v40m108.1-40v40" stroke="#3a414a" fill="none"/><use xlink:href="#y" transform="matrix(1,0,0,1,1014.9172903170546,145) translate(7.79012345679012 19.444444444444443)"/><path d="M1128.27 120h39.36a6 6 0 0 1 6 6v8a6 6 0 0 0 6 6H1219" stroke="#3a414a" fill="none"/><path d="M1128.28 120.5h-.5v-1h.5zM1219.5 140.5h-.5v-1h.5z" stroke="#3a414a" stroke-width=".05" fill="#3a414a"/><defs><path fill="#3a414a" d="M127-220V0H93v-220H8v-28h204v28h-85" id="z"/><path fill="#3a414a" d="M141-36C126-15 110 5 73 4 37 3 15-17 15-53c-1-64 63-63 125-63 3-35-9-54-41-54-24 1-41 7-42 31l-33-3c5-37 33-52 76-52 45 0 72 20 72 64v82c-1 20 7 32 28 27v20c-31 9-61-2-59-35zM48-53c0 20 12 33 32 33 41-3 63-29 60-74-43 2-92-5-92 41" id="A"/><path fill="#3a414a" d="M24-231v-30h32v30H24zM24 0v-190h32V0H24" id="B"/><path fill="#3a414a" d="M24 0v-261h32V0H24" id="C"/><path fill="#3a414a" d="M206 0h-36l-40-164L89 0H53L-1-190h32L70-26l43-164h34l41 164 42-164h31" id="D"/><path fill="#3a414a" d="M117-194c89-4 53 116 60 194h-32v-121c0-31-8-49-39-48C34-167 62-67 57 0H25l-1-190h30c1 10-1 24 2 32 11-22 29-35 61-36" id="E"/><path fill="#3a414a" d="M85-194c31 0 48 13 60 33l-1-100h32l1 261h-30c-2-10 0-23-3-31C134-8 116 4 85 4 32 4 16-35 15-94c0-66 23-100 70-100zm9 24c-40 0-46 34-46 75 0 40 6 74 45 74 42 0 51-32 51-76 0-42-9-74-50-73" id="F"/><g id="a"><use transform="matrix(0.06172839506172839,0,0,0.06172839506172839,0,0)" xlink:href="#z"/><use transform="matrix(0.06172839506172839,0,0,0.06172839506172839,11.049382716049381,0)" xlink:href="#A"/><use transform="matrix(0.06172839506172839,0,0,0.06172839506172839,23.39506172839506,0)" xlink:href="#B"/><use transform="matrix(0.06172839506172839,0,0,0.06172839506172839,28.2716049382716,0)" xlink:href="#C"/><use transform="matrix(0.06172839506172839,0,0,0.06172839506172839,33.148148148148145,0)" xlink:href="#D"/><use transform="matrix(0.06172839506172839,0,0,0.06172839506172839,49.1358024691358,0)" xlink:href="#B"/><use transform="matrix(0.06172839506172839,0,0,0.06172839506172839,54.01234567901234,0)" xlink:href="#E"/><use transform="matrix(0.06172839506172839,0,0,0.06172839506172839,66.35802469135803,0)" xlink:href="#F"/></g><path fill="#3a414a" d="M63-220v92h138v28H63V0H30v-248h175v28H63" id="G"/><path fill="#3a414a" d="M100-194c62-1 85 37 85 99 1 63-27 99-86 99S16-35 15-95c0-66 28-99 85-99zM99-20c44 1 53-31 53-75 0-43-8-75-51-75s-53 32-53 75 10 74 51 75" id="H"/><path fill="#3a414a" d="M115-194c53 0 69 39 70 98 0 66-23 100-70 100C84 3 66-7 56-30L54 0H23l1-261h32v101c10-23 28-34 59-34zm-8 174c40 0 45-34 45-75 0-40-5-75-45-74-42 0-51 32-51 76 0 43 10 73 51 73" id="I"/><path fill="#3a414a" d="M59-47c-2 24 18 29 38 22v24C64 9 27 4 27-40v-127H5v-23h24l9-43h21v43h35v23H59v120" id="J"/><path fill="#3a414a" d="M100-194c63 0 86 42 84 106H49c0 40 14 67 53 68 26 1 43-12 49-29l28 8c-11 28-37 45-77 45C44 4 14-33 15-96c1-61 26-98 85-98zm52 81c6-60-76-77-97-28-3 7-6 17-6 28h103" id="K"/><g id="b"><use transform="matrix(0.06172839506172839,0,0,0.06172839506172839,0,0)" xlink:href="#G"/><use transform="matrix(0.06172839506172839,0,0,0.06172839506172839,13.518518518518517,0)" xlink:href="#C"/><use transform="matrix(0.06172839506172839,0,0,0.06172839506172839,18.39506172839506,0)" xlink:href="#H"/><use transform="matrix(0.06172839506172839,0,0,0.06172839506172839,30.74074074074074,0)" xlink:href="#D"/><use transform="matrix(0.06172839506172839,0,0,0.06172839506172839,46.72839506172839,0)" xlink:href="#I"/><use transform="matrix(0.06172839506172839,0,0,0.06172839506172839,59.07407407407407,0)" xlink:href="#B"/><use transform="matrix(0.06172839506172839,0,0,0.06172839506172839,63.95061728395061,0)" xlink:href="#J"/><use transform="matrix(0.06172839506172839,0,0,0.06172839506172839,70.12345679012346,0)" xlink:href="#K"/><path fill="#8080ff" d="M-1.1 1.54h84.68v1.63h-84.7z"/></g><path fill="#3a414a" d="M240 0l2-218c-23 76-54 145-80 218h-23L58-218 59 0H30v-248h44l77 211c21-75 51-140 76-211h43V0h-30" id="L"/><path fill="#3a414a" d="M30-248c118-7 216 8 213 122C240-48 200 0 122 0H30v-248zM63-27c89 8 146-16 146-99s-60-101-146-95v194" id="M"/><path fill="#3a414a" d="M195 0l-74-108L45 0H8l94-129-87-119h37l69 98 67-98h37l-84 118L233 0h-38" id="N"/><g id="c"><use transform="matrix(0.06172839506172839,0,0,0.06172839506172839,0,0)" xlink:href="#L"/><use transform="matrix(0.06172839506172839,0,0,0.06172839506172839,18.456790123456788,0)" xlink:href="#M"/><use transform="matrix(0.06172839506172839,0,0,0.06172839506172839,34.44444444444444,0)" xlink:href="#N"/></g><path fill="#3a414a" d="M190 0L58-211 59 0H30v-248h39L202-35l-2-213h31V0h-41" id="O"/><path fill="#3a414a" d="M141 0L90-78 38 0H4l68-98-65-92h35l48 74 47-74h35l-64 92 68 98h-35" id="P"/><path fill="#3a414a" d="M153-248C145-148 188 4 80 4 36 3 13-21 6-62l32-5c4 25 16 42 43 43 27 0 39-20 39-49v-147H72v-28h81" id="Q"/><path fill="#3a414a" d="M185-189c-5-48-123-54-124 2 14 75 158 14 163 119 3 78-121 87-175 55-17-10-28-26-33-46l33-7c5 56 141 63 141-1 0-78-155-14-162-118-5-82 145-84 179-34 5 7 8 16 11 25" id="R"/><g id="d"><use transform="matrix(0.06172839506172839,0,0,0.06172839506172839,0,0)" xlink:href="#O"/><use transform="matrix(0.06172839506172839,0,0,0.06172839506172839,15.987654320987653,0)" xlink:href="#K"/><use transform="matrix(0.06172839506172839,0,0,0.06172839506172839,28.333333333333332,0)" xlink:href="#P"/><use transform="matrix(0.06172839506172839,0,0,0.06172839506172839,39.44444444444444,0)" xlink:href="#J"/><use transform="matrix(0.06172839506172839,0,0,0.06172839506172839,45.617283950617285,0)" xlink:href="#Q"/><use transform="matrix(0.06172839506172839,0,0,0.06172839506172839,56.72839506172839,0)" xlink:href="#R"/></g><path fill="#3a414a" d="M114-163C36-179 61-72 57 0H25l-1-190h30c1 12-1 29 2 39 6-27 23-49 58-41v29" id="S"/><path fill="#3a414a" d="M115-194c55 1 70 41 70 98S169 2 115 4C84 4 66-9 55-30l1 105H24l-1-265h31l2 30c10-21 28-34 59-34zm-8 174c40 0 45-34 45-75s-6-73-45-74c-42 0-51 32-51 76 0 43 10 73 51 73" id="T"/><g id="e"><use transform="matrix(0.06172839506172839,0,0,0.06172839506172839,0,0)" xlink:href="#R"/><use transform="matrix(0.06172839506172839,0,0,0.06172839506172839,14.814814814814813,0)" xlink:href="#J"/><use transform="matrix(0.06172839506172839,0,0,0.06172839506172839,20.98765432098765,0)" xlink:href="#S"/><use transform="matrix(0.06172839506172839,0,0,0.06172839506172839,28.33333333333333,0)" xlink:href="#A"/><use transform="matrix(0.06172839506172839,0,0,0.06172839506172839,40.679012345679006,0)" xlink:href="#T"/><use transform="matrix(0.06172839506172839,0,0,0.06172839506172839,53.02469135802468,0)" xlink:href="#B"/></g><path fill="#3a414a" d="M233-177c-1 41-23 64-60 70L243 0h-38l-65-103H63V0H30v-248c88 3 205-21 203 71zM63-129c60-2 137 13 137-47 0-61-80-42-137-45v92" id="U"/><path fill="#3a414a" d="M96-169c-40 0-48 33-48 73s9 75 48 75c24 0 41-14 43-38l32 2c-6 37-31 61-74 61-59 0-76-41-82-99-10-93 101-131 147-64 4 7 5 14 7 22l-32 3c-4-21-16-35-41-35" id="V"/><g id="f"><use transform="matrix(0.06172839506172839,0,0,0.06172839506172839,0,0)" xlink:href="#U"/><use transform="matrix(0.06172839506172839,0,0,0.06172839506172839,15.987654320987653,0)" xlink:href="#K"/><use transform="matrix(0.06172839506172839,0,0,0.06172839506172839,28.333333333333332,0)" xlink:href="#A"/><use transform="matrix(0.06172839506172839,0,0,0.06172839506172839,40.67901234567901,0)" xlink:href="#V"/><use transform="matrix(0.06172839506172839,0,0,0.06172839506172839,51.79012345679013,0)" xlink:href="#J"/></g><path fill="#3a414a" d="M137 0h-34L2-248h35l83 218 83-218h36" id="W"/><g id="g"><use transform="matrix(0.06172839506172839,0,0,0.06172839506172839,0,0)" xlink:href="#W"/><use transform="matrix(0.06172839506172839,0,0,0.06172839506172839,13.580246913580245,0)" xlink:href="#K"/><use transform="matrix(0.06172839506172839,0,0,0.06172839506172839,25.925925925925924,0)" xlink:href="#S"/><use transform="matrix(0.06172839506172839,0,0,0.06172839506172839,33.2716049382716,0)" xlink:href="#V"/><use transform="matrix(0.06172839506172839,0,0,0.06172839506172839,44.38271604938271,0)" xlink:href="#K"/><use transform="matrix(0.06172839506172839,0,0,0.06172839506172839,56.728395061728385,0)" xlink:href="#C"/></g><path fill="#3a414a" d="M140-251c81 0 123 46 123 126C263-46 219 4 140 4 59 4 17-45 17-125s42-126 123-126zm0 227c63 0 89-41 89-101s-29-99-89-99c-61 0-89 39-89 99S79-25 140-24" id="X"/><g id="h"><use transform="matrix(0.06172839506172839,0,0,0.06172839506172839,0,0)" xlink:href="#X"/><use transform="matrix(0.06172839506172839,0,0,0.06172839506172839,17.28395061728395,0)" xlink:href="#T"/><use transform="matrix(0.06172839506172839,0,0,0.06172839506172839,29.629629629629626,0)" xlink:href="#K"/><use transform="matrix(0.06172839506172839,0,0,0.06172839506172839,41.9753086419753,0)" xlink:href="#E"/><use transform="matrix(0.06172839506172839,0,0,0.06172839506172839,54.32098765432098,0)" xlink:href="#G"/><use transform="matrix(0.06172839506172839,0,0,0.06172839506172839,67.83950617283949,0)" xlink:href="#A"/><use transform="matrix(0.06172839506172839,0,0,0.06172839506172839,80.18518518518518,0)" xlink:href="#A"/><use transform="matrix(0.06172839506172839,0,0,0.06172839506172839,92.53086419753086,0)" xlink:href="#R"/></g><path fill="#3a414a" d="M212-179c-10-28-35-45-73-45-59 0-87 40-87 99 0 60 29 101 89 101 43 0 62-24 78-52l27 14C228-24 195 4 139 4 59 4 22-46 18-125c-6-104 99-153 187-111 19 9 31 26 39 46" id="Y"/><path fill="#3a414a" d="M84 4C-5 8 30-112 23-190h32v120c0 31 7 50 39 49 72-2 45-101 50-169h31l1 190h-30c-1-10 1-25-2-33-11 22-28 36-60 37" id="Z"/><path fill="#3a414a" d="M135-143c-3-34-86-38-87 0 15 53 115 12 119 90S17 21 10-45l28-5c4 36 97 45 98 0-10-56-113-15-118-90-4-57 82-63 122-42 12 7 21 19 24 35" id="aa"/><path fill="#3a414a" d="M210-169c-67 3-38 105-44 169h-31v-121c0-29-5-50-35-48C34-165 62-65 56 0H25l-1-190h30c1 10-1 24 2 32 10-44 99-50 107 0 11-21 27-35 58-36 85-2 47 119 55 194h-31v-121c0-29-5-49-35-48" id="ab"/><g id="i"><use transform="matrix(0.06172839506172839,0,0,0.06172839506172839,0,0)" xlink:href="#Y"/><use transform="matrix(0.06172839506172839,0,0,0.06172839506172839,15.987654320987653,0)" xlink:href="#Z"/><use transform="matrix(0.06172839506172839,0,0,0.06172839506172839,28.333333333333332,0)" xlink:href="#aa"/><use transform="matrix(0.06172839506172839,0,0,0.06172839506172839,39.44444444444444,0)" xlink:href="#J"/><use transform="matrix(0.06172839506172839,0,0,0.06172839506172839,45.617283950617285,0)" xlink:href="#H"/><use transform="matrix(0.06172839506172839,0,0,0.06172839506172839,57.96296296296296,0)" xlink:href="#ab"/><path fill="#8080ff" d="M-1.1 1.54h78.63v1.63H-1.1z"/></g><path fill="#3a414a" d="M108 0H70L1-190h34L89-25l56-165h34" id="ac"/><g id="j"><use transform="matrix(0.06172839506172839,0,0,0.06172839506172839,0,0)" xlink:href="#R"/><use transform="matrix(0.06172839506172839,0,0,0.06172839506172839,14.814814814814813,0)" xlink:href="#K"/><use transform="matrix(0.06172839506172839,0,0,0.06172839506172839,27.160493827160494,0)" xlink:href="#S"/><use transform="matrix(0.06172839506172839,0,0,0.06172839506172839,34.50617283950617,0)" xlink:href="#ac"/><use transform="matrix(0.06172839506172839,0,0,0.06172839506172839,45.61728395061728,0)" xlink:href="#K"/><use transform="matrix(0.06172839506172839,0,0,0.06172839506172839,57.962962962962955,0)" xlink:href="#S"/><path fill="#8080ff" d="M-1.1 1.54H66.4v1.63H-1.1z"/></g><g id="k"><use transform="matrix(0.06172839506172839,0,0,0.06172839506172839,0,0)" xlink:href="#Q"/><use transform="matrix(0.06172839506172839,0,0,0.06172839506172839,11.11111111111111,0)" xlink:href="#R"/></g><path fill="#3a414a" d="M101-234c-31-9-42 10-38 44h38v23H63V0H32v-167H5v-23h27c-7-52 17-82 69-68v24" id="ad"/><g id="l"><use transform="matrix(0.06172839506172839,0,0,0.06172839506172839,0,0)" xlink:href="#R"/><use transform="matrix(0.06172839506172839,0,0,0.06172839506172839,14.814814814814813,0)" xlink:href="#K"/><use transform="matrix(0.06172839506172839,0,0,0.06172839506172839,27.160493827160494,0)" xlink:href="#C"/><use transform="matrix(0.06172839506172839,0,0,0.06172839506172839,32.03703703703704,0)" xlink:href="#ad"/><path fill="#8080ff" d="M-1.1 1.54H39.3v1.63H-1.1z"/></g><path fill="#3a414a" d="M197 0v-115H63V0H30v-248h33v105h134v-105h34V0h-34" id="ae"/><path fill="#3a414a" d="M177-190C167-65 218 103 67 71c-23-6-38-20-44-43l32-5c15 47 100 32 89-28v-30C133-14 115 1 83 1 29 1 15-40 15-95c0-56 16-97 71-98 29-1 48 16 59 35 1-10 0-23 2-32h30zM94-22c36 0 50-32 50-73 0-42-14-75-50-75-39 0-46 34-46 75s6 73 46 73" id="af"/><g id="m"><use transform="matrix(0.06172839506172839,0,0,0.06172839506172839,0,0)" xlink:href="#ae"/><use transform="matrix(0.06172839506172839,0,0,0.06172839506172839,15.987654320987653,0)" xlink:href="#H"/><use transform="matrix(0.06172839506172839,0,0,0.06172839506172839,28.333333333333332,0)" xlink:href="#aa"/><use transform="matrix(0.06172839506172839,0,0,0.06172839506172839,39.44444444444444,0)" xlink:href="#J"/><use transform="matrix(0.06172839506172839,0,0,0.06172839506172839,45.617283950617285,0)" xlink:href="#B"/><use transform="matrix(0.06172839506172839,0,0,0.06172839506172839,50.49382716049383,0)" xlink:href="#E"/><use transform="matrix(0.06172839506172839,0,0,0.06172839506172839,62.839506172839506,0)" xlink:href="#af"/><path fill="#8080ff" d="M-1.1 1.54h77.4v1.63H-1.1z"/></g><path fill="#3a414a" d="M30 0v-248h187v28H63v79h144v27H63v87h162V0H30" id="ag"/><g id="n"><use transform="matrix(0.06172839506172839,0,0,0.06172839506172839,0,0)" xlink:href="#ag"/><use transform="matrix(0.06172839506172839,0,0,0.06172839506172839,14.814814814814813,0)" xlink:href="#P"/><use transform="matrix(0.06172839506172839,0,0,0.06172839506172839,25.925925925925924,0)" xlink:href="#A"/><use transform="matrix(0.06172839506172839,0,0,0.06172839506172839,38.2716049382716,0)" xlink:href="#ab"/><use transform="matrix(0.06172839506172839,0,0,0.06172839506172839,56.72839506172839,0)" xlink:href="#T"/><use transform="matrix(0.06172839506172839,0,0,0.06172839506172839,69.07407407407408,0)" xlink:href="#C"/><use transform="matrix(0.06172839506172839,0,0,0.06172839506172839,73.95061728395062,0)" xlink:href="#K"/><path fill="#8080ff" d="M-1.1 1.54h88.5v1.63H-1.1z"/></g><g id="o"><use transform="matrix(0.06172839506172839,0,0,0.06172839506172839,0,0)" xlink:href="#z"/><use transform="matrix(0.06172839506172839,0,0,0.06172839506172839,11.049382716049381,0)" xlink:href="#K"/><use transform="matrix(0.06172839506172839,0,0,0.06172839506172839,23.39506172839506,0)" xlink:href="#ab"/><use transform="matrix(0.06172839506172839,0,0,0.06172839506172839,41.85185185185185,0)" xlink:href="#T"/><use transform="matrix(0.06172839506172839,0,0,0.06172839506172839,54.197530864197525,0)" xlink:href="#C"/><use transform="matrix(0.06172839506172839,0,0,0.06172839506172839,59.07407407407407,0)" xlink:href="#A"/><use transform="matrix(0.06172839506172839,0,0,0.06172839506172839,71.41975308641975,0)" xlink:href="#J"/><use transform="matrix(0.06172839506172839,0,0,0.06172839506172839,77.59259259259258,0)" xlink:href="#K"/><path fill="#8080ff" d="M-1.1 1.54h92.15v1.63H-1.1z"/></g><path fill="#3a414a" d="M194 0L95-120 63-95V0H30v-248h33v124l119-124h40L117-140 236 0h-42" id="ah"/><path fill="#3a414a" d="M134-131c28 9 52 24 51 62-1 50-34 73-85 73S17-19 16-69c0-36 21-54 49-61-75-25-45-126 34-121 46 3 78 18 79 63 0 33-17 51-44 57zm-34-11c31 1 46-15 46-44 0-28-17-43-47-42-29 0-46 13-45 42 1 28 16 44 46 44zm1 122c35 0 51-18 51-52 0-30-18-46-53-46-33 0-51 17-51 47 0 34 19 51 53 51" id="ai"/><g id="p"><use transform="matrix(0.06172839506172839,0,0,0.06172839506172839,0,0)" xlink:href="#ah"/><use transform="matrix(0.06172839506172839,0,0,0.06172839506172839,14.814814814814813,0)" xlink:href="#ai"/><use transform="matrix(0.06172839506172839,0,0,0.06172839506172839,27.160493827160494,0)" xlink:href="#aa"/></g><path fill="#3a414a" d="M160-131c35 5 61 23 61 61C221 17 115-2 30 0v-248c76 3 177-17 177 60 0 33-19 50-47 57zm-97-11c50-1 110 9 110-42 0-47-63-36-110-37v79zm0 115c55-2 124 14 124-45 0-56-70-42-124-44v89" id="aj"/><g id="q"><use transform="matrix(0.06172839506172839,0,0,0.06172839506172839,0,0)" xlink:href="#aj"/><use transform="matrix(0.06172839506172839,0,0,0.06172839506172839,14.814814814814813,0)" xlink:href="#A"/><use transform="matrix(0.06172839506172839,0,0,0.06172839506172839,27.160493827160494,0)" xlink:href="#A"/><use transform="matrix(0.06172839506172839,0,0,0.06172839506172839,39.50617283950617,0)" xlink:href="#R"/></g><g id="r"><use transform="matrix(0.06172839506172839,0,0,0.06172839506172839,0,0)" xlink:href="#Q"/><use transform="matrix(0.06172839506172839,0,0,0.06172839506172839,11.11111111111111,0)" xlink:href="#R"/><use transform="matrix(0.06172839506172839,0,0,0.06172839506172839,25.925925925925924,0)" xlink:href="#M"/><use transform="matrix(0.06172839506172839,0,0,0.06172839506172839,41.913580246913575,0)" xlink:href="#H"/><use transform="matrix(0.06172839506172839,0,0,0.06172839506172839,54.25925925925925,0)" xlink:href="#V"/></g><path fill="#3a414a" d="M169-182c-1-43-94-46-97-3 18 66 151 10 154 114 3 95-165 93-204 36-6-8-10-19-12-30l50-8c3 46 112 56 116 5-17-69-150-10-154-114-4-87 153-88 188-35 5 8 8 18 10 28" id="ak"/><path fill="#3a414a" d="M115-3C79 11 28 4 28-45v-112H4v-33h27l15-45h31v45h36v33H77v99c-1 23 16 31 38 25v30" id="al"/><path fill="#3a414a" d="M133-34C117-15 103 5 69 4 32 3 11-16 11-54c-1-60 55-63 116-61 1-26-3-47-28-47-18 1-26 9-28 27l-52-2c7-38 36-58 82-57s74 22 75 68l1 82c-1 14 12 18 25 15v27c-30 8-71 5-69-32zm-48 3c29 0 43-24 42-57-32 0-66-3-65 30 0 17 8 27 23 27" id="am"/><path fill="#3a414a" d="M190-63c-7 42-38 67-86 67-59 0-84-38-90-98-12-110 154-137 174-36l-49 2c-2-19-15-32-35-32-30 0-35 28-38 64-6 74 65 87 74 30" id="an"/><path fill="#3a414a" d="M147 0L96-86 75-71V0H25v-261h50v150l67-79h53l-66 74L201 0h-54" id="ao"/><g id="s"><use transform="matrix(0.06172839506172839,0,0,0.06172839506172839,0,0)" xlink:href="#ak"/><use transform="matrix(0.06172839506172839,0,0,0.06172839506172839,14.814814814814813,0)" xlink:href="#al"/><use transform="matrix(0.06172839506172839,0,0,0.06172839506172839,22.160493827160494,0)" xlink:href="#am"/><use transform="matrix(0.06172839506172839,0,0,0.06172839506172839,34.50617283950617,0)" xlink:href="#an"/><use transform="matrix(0.06172839506172839,0,0,0.06172839506172839,46.85185185185185,0)" xlink:href="#ao"/></g><path fill="#3a414a" d="M30-248c87 1 191-15 191 75 0 78-77 80-158 76V0H30v-248zm33 125c57 0 124 11 124-50 0-59-68-47-124-48v98" id="ap"/><g id="t"><use transform="matrix(0.06172839506172839,0,0,0.06172839506172839,0,0)" xlink:href="#ap"/><use transform="matrix(0.06172839506172839,0,0,0.06172839506172839,14.814814814814813,0)" xlink:href="#A"/><use transform="matrix(0.06172839506172839,0,0,0.06172839506172839,27.160493827160494,0)" xlink:href="#aa"/><use transform="matrix(0.06172839506172839,0,0,0.06172839506172839,38.27160493827161,0)" xlink:href="#J"/><use transform="matrix(0.06172839506172839,0,0,0.06172839506172839,44.44444444444445,0)" xlink:href="#K"/><use transform="matrix(0.06172839506172839,0,0,0.06172839506172839,56.79012345679013,0)" xlink:href="#C"/></g><path fill="#3a414a" d="M33 0v-248h34V0H33" id="aq"/><path fill="#3a414a" d="M143 0L79-87 56-68V0H24v-261h32v163l83-92h37l-77 82L181 0h-38" id="ar"/><g id="u"><use transform="matrix(0.06172839506172839,0,0,0.06172839506172839,0,0)" xlink:href="#aq"/><use transform="matrix(0.06172839506172839,0,0,0.06172839506172839,6.172839506172839,0)" xlink:href="#E"/><use transform="matrix(0.06172839506172839,0,0,0.06172839506172839,18.51851851851852,0)" xlink:href="#ar"/></g><path fill="#3a414a" d="M67-125c0 53 21 87 73 88 37 1 54-22 65-47l45 17C233-25 199 4 140 4 58 4 20-42 15-125 8-235 124-281 211-232c18 10 29 29 36 50l-46 12c-8-25-30-41-62-41-52 0-71 34-72 86" id="as"/><path fill="#3a414a" d="M24 0v-248h52v208h133V0H24" id="at"/><path fill="#3a414a" d="M24 0v-248h52V0H24" id="au"/><g id="v"><use transform="matrix(0.06172839506172839,0,0,0.06172839506172839,0,0)" xlink:href="#as"/><use transform="matrix(0.06172839506172839,0,0,0.06172839506172839,15.987654320987653,0)" xlink:href="#at"/><use transform="matrix(0.06172839506172839,0,0,0.06172839506172839,29.50617283950617,0)" xlink:href="#au"/></g><path fill="#3a414a" d="M137-103V0h-34v-103L8-248h37l75 118 75-118h37" id="av"/><g id="w"><use transform="matrix(0.06172839506172839,0,0,0.06172839506172839,0,0)" xlink:href="#av"/><use transform="matrix(0.06172839506172839,0,0,0.06172839506172839,12.777777777777777,0)" xlink:href="#K"/><use transform="matrix(0.06172839506172839,0,0,0.06172839506172839,25.123456790123456,0)" xlink:href="#H"/><use transform="matrix(0.06172839506172839,0,0,0.06172839506172839,37.46913580246913,0)" xlink:href="#ab"/><use transform="matrix(0.06172839506172839,0,0,0.06172839506172839,55.925925925925924,0)" xlink:href="#A"/><use transform="matrix(0.06172839506172839,0,0,0.06172839506172839,68.27160493827161,0)" xlink:href="#E"/></g><g id="x"><use transform="matrix(0.06172839506172839,0,0,0.06172839506172839,0,0)" xlink:href="#R"/><use transform="matrix(0.06172839506172839,0,0,0.06172839506172839,14.814814814814813,0)" xlink:href="#K"/><use transform="matrix(0.06172839506172839,0,0,0.06172839506172839,27.160493827160494,0)" xlink:href="#C"/><use transform="matrix(0.06172839506172839,0,0,0.06172839506172839,32.03703703703704,0)" xlink:href="#K"/><use transform="matrix(0.06172839506172839,0,0,0.06172839506172839,44.382716049382715,0)" xlink:href="#V"/><use transform="matrix(0.06172839506172839,0,0,0.06172839506172839,55.49382716049382,0)" xlink:href="#J"/></g><g id="y"><use transform="matrix(0.06172839506172839,0,0,0.06172839506172839,0,0)" xlink:href="#R"/><use transform="matrix(0.06172839506172839,0,0,0.06172839506172839,14.814814814814813,0)" xlink:href="#T"/><use transform="matrix(0.06172839506172839,0,0,0.06172839506172839,27.160493827160494,0)" xlink:href="#B"/><use transform="matrix(0.06172839506172839,0,0,0.06172839506172839,32.03703703703704,0)" xlink:href="#E"/><use transform="matrix(0.06172839506172839,0,0,0.06172839506172839,44.382716049382715,0)" xlink:href="#E"/><use transform="matrix(0.06172839506172839,0,0,0.06172839506172839,56.72839506172839,0)" xlink:href="#K"/><use transform="matrix(0.06172839506172839,0,0,0.06172839506172839,69.07407407407408,0)" xlink:href="#S"/></g></defs></g></svg>